STARTFONT 2.1
COMMENT "$Id: 9x15.bdf,v 1.80 2003-01-17 21:39:25+00 mgk25 Exp mgk25 $"
COMMENT "Send bug reports to Markus Kuhn <http://www.cl.cam.ac.uk/~mgk25/>"
FONT -Misc-Fixed-Medium-R-Normal--15-140-75-75-C-90-ISO10646-1
SIZE 15 75 75
FONTBOUNDINGBOX 9 15 0 -3
STARTPROPERTIES 23
FONTNAME_REGISTRY ""
FOUNDRY "Misc"
FAMILY_NAME "Fixed"
WEIGHT_NAME "Medium"
SLANT "R"
SETWIDTH_NAME "Normal"
ADD_STYLE_NAME ""
PIXEL_SIZE 15
POINT_SIZE 140
RESOLUTION_X 75
RESOLUTION_Y 75
SPACING "C"
AVERAGE_WIDTH 90
CHARSET_REGISTRY "ISO10646"
CHARSET_ENCODING "1"
DEFAULT_CHAR 0
FONT_DESCENT 3
FONT_ASCENT 12
COPYRIGHT "Public domain font.  Share and enjoy."
_XMBDFED_INFO "Edited with xmbdfed 4.5."
CAP_HEIGHT 10
X_HEIGHT 7
_GBDFED_INFO "Edited with gbdfed 1.1."
ENDPROPERTIES
CHARS 80
STARTCHAR uni10A0
ENCODING 4256
SWIDTH 576 0
DWIDTH 9 0
BBX 9 15 0 -3
BITMAP
0000
0000
7E00
1100
2000
4000
4000
4000
4000
4000
2100
1E00
0000
0000
0000
ENDCHAR
STARTCHAR uni10A1
ENCODING 4257
SWIDTH 576 0
DWIDTH 9 0
BBX 9 15 0 -3
BITMAP
0000
0000
4800
8800
8800
8800
9800
6800
0800
0800
0800
0F00
0100
0000
0000
ENDCHAR
STARTCHAR uni10A2
ENCODING 4258
SWIDTH 576 0
DWIDTH 9 0
BBX 9 15 0 -3
BITMAP
0000
0000
F800
8800
8800
0800
0800
0800
0800
0800
0800
0F00
0100
0000
0000
ENDCHAR
STARTCHAR uni10A3
ENCODING 4259
SWIDTH 576 0
DWIDTH 9 0
BBX 9 15 0 -3
BITMAP
0000
4000
7F00
0900
1400
2200
4100
4100
4100
4100
2200
1C00
0000
0000
0000
ENDCHAR
STARTCHAR uni10A4
ENCODING 4260
SWIDTH 576 0
DWIDTH 9 0
BBX 9 15 0 -3
BITMAP
0000
0000
7E00
4200
4200
0200
0200
0200
0200
0200
0200
0200
0000
0000
0000
ENDCHAR
STARTCHAR uni10A5
ENCODING 4261
SWIDTH 576 0
DWIDTH 9 0
BBX 9 15 0 -3
BITMAP
0000
0000
F800
8800
8800
0800
0F00
0900
0800
0800
0800
0800
0000
0000
0000
ENDCHAR
STARTCHAR uni10A6
ENCODING 4262
SWIDTH 576 0
DWIDTH 9 0
BBX 9 15 0 -3
BITMAP
0000
0000
7000
1000
1000
1600
1900
1100
1100
1100
1100
0E00
0000
0000
0000
ENDCHAR
STARTCHAR uni10A7
ENCODING 4263
SWIDTH 576 0
DWIDTH 9 0
BBX 9 15 0 -3
BITMAP
0000
0000
3C00
4400
8400
8400
8700
8500
8400
8400
4400
3C00
0000
0000
0000
ENDCHAR
STARTCHAR uni10A8
ENCODING 4264
SWIDTH 576 0
DWIDTH 9 0
BBX 9 15 0 -3
BITMAP
0000
0000
7E00
0200
0200
0200
0200
0200
0200
0200
0200
0200
0000
0000
0000
ENDCHAR
STARTCHAR uni10A9
ENCODING 4265
SWIDTH 576 0
DWIDTH 9 0
BBX 9 15 0 -3
BITMAP
0000
0000
4000
4000
5E00
6100
4100
4100
4300
3D00
0100
0100
0000
0000
0000
ENDCHAR
STARTCHAR uni10AA
ENCODING 4266
SWIDTH 576 0
DWIDTH 9 0
BBX 9 15 0 -3
BITMAP
0000
0000
F000
9000
1000
1600
1900
1100
1100
1100
1100
0E00
0000
0000
0000
ENDCHAR
STARTCHAR uni10AB
ENCODING 4267
SWIDTH 576 0
DWIDTH 9 0
BBX 9 15 0 -3
BITMAP
0000
0000
F800
0800
0800
0800
7F00
8900
8800
8800
8800
7000
0000
0000
0000
ENDCHAR
STARTCHAR uni10AC
ENCODING 4268
SWIDTH 576 0
DWIDTH 9 0
BBX 9 15 0 -3
BITMAP
0000
0000
7E00
4000
4000
4000
7E00
4200
4200
4200
4200
4200
0000
0000
0000
ENDCHAR
STARTCHAR uni10AD
ENCODING 4269
SWIDTH 576 0
DWIDTH 9 0
BBX 9 15 0 -3
BITMAP
0000
0000
7000
8800
8800
8800
8800
8800
8800
8900
8D00
7200
0000
0000
0000
ENDCHAR
STARTCHAR uni10AE
ENCODING 4270
SWIDTH 576 0
DWIDTH 9 0
BBX 9 15 0 -3
BITMAP
0000
0000
E100
2100
2100
2100
2100
2100
2100
2100
1200
0C00
0000
0000
0000
ENDCHAR
STARTCHAR uni10AF
ENCODING 4271
SWIDTH 576 0
DWIDTH 9 0
BBX 9 15 0 -3
BITMAP
0000
0000
7100
1100
2100
2100
2300
1D00
0100
0100
0100
0100
0000
0000
0000
ENDCHAR
STARTCHAR uni10B0
ENCODING 4272
SWIDTH 576 0
DWIDTH 9 0
BBX 9 15 0 -3
BITMAP
0000
0000
0800
0800
0800
0A00
0D00
0900
8900
8800
8800
7000
0000
0000
0000
ENDCHAR
STARTCHAR uni10B1
ENCODING 4273
SWIDTH 576 0
DWIDTH 9 0
BBX 9 15 0 -3
BITMAP
0000
0000
4000
4000
4000
4000
4000
4400
4200
4200
4200
3C00
0000
0000
0000
ENDCHAR
STARTCHAR uni10B2
ENCODING 4274
SWIDTH 576 0
DWIDTH 9 0
BBX 9 15 0 -3
BITMAP
0000
0000
7C00
4200
4200
4200
4200
7C00
4000
4000
4000
7E00
0000
0000
0000
ENDCHAR
STARTCHAR uni10B3
ENCODING 4275
SWIDTH 576 0
DWIDTH 9 0
BBX 9 15 0 -3
BITMAP
0000
0000
7000
8800
8800
8800
8800
8800
8800
8A00
8D00
7100
0000
0000
0000
ENDCHAR
STARTCHAR uni10B4
ENCODING 4276
SWIDTH 576 0
DWIDTH 9 0
BBX 9 15 0 -3
BITMAP
0000
0000
3E00
4900
4900
4900
4900
3E00
0800
0800
0800
0800
0000
0000
0000
ENDCHAR
STARTCHAR uni10B5
ENCODING 4277
SWIDTH 576 0
DWIDTH 9 0
BBX 9 15 0 -3
BITMAP
0000
0000
0800
0800
0800
4800
7F00
0900
0800
0800
0800
0800
0000
0000
0000
ENDCHAR
STARTCHAR uni10B6
ENCODING 4278
SWIDTH 576 0
DWIDTH 9 0
BBX 9 15 0 -3
BITMAP
0000
0000
3C00
4200
4200
4200
4200
4200
4200
4200
4200
4200
0000
0000
0000
ENDCHAR
STARTCHAR uni10B7
ENCODING 4279
SWIDTH 576 0
DWIDTH 9 0
BBX 9 15 0 -3
BITMAP
0000
0000
2200
4200
4200
4200
4600
3A00
0200
0200
0200
0200
0000
0000
0000
ENDCHAR
STARTCHAR uni10B8
ENCODING 4280
SWIDTH 576 0
DWIDTH 9 0
BBX 9 15 0 -3
BITMAP
0000
0000
2200
4200
4200
4600
3A00
0200
4200
4200
4200
3C00
0000
0000
0000
ENDCHAR
STARTCHAR uni10B9
ENCODING 4281
SWIDTH 576 0
DWIDTH 9 0
BBX 9 15 0 -3
BITMAP
0000
0000
4000
4000
4000
4000
7E00
4200
4200
4200
4200
4200
0000
0000
0000
ENDCHAR
STARTCHAR uni10BA
ENCODING 4282
SWIDTH 576 0
DWIDTH 9 0
BBX 9 15 0 -3
BITMAP
0000
0000
1E00
2100
4000
4000
4000
4000
4000
4000
2100
1F00
0200
0400
0000
ENDCHAR
STARTCHAR uni10BB
ENCODING 4283
SWIDTH 576 0
DWIDTH 9 0
BBX 9 15 0 -3
BITMAP
0000
0000
0800
0800
0800
0800
7F00
8900
8800
8800
8800
7000
0000
0000
0000
ENDCHAR
STARTCHAR uni10BC
ENCODING 4284
SWIDTH 576 0
DWIDTH 9 0
BBX 9 15 0 -3
BITMAP
0000
0000
7C00
4200
4200
4200
7C00
4000
7800
4400
4800
4000
0000
0000
0000
ENDCHAR
STARTCHAR uni10BD
ENCODING 4285
SWIDTH 576 0
DWIDTH 9 0
BBX 9 15 0 -3
BITMAP
0000
0000
1C00
2200
2200
2000
1800
0600
0100
4100
4100
3E00
0000
0000
0000
ENDCHAR
STARTCHAR uni10BE
ENCODING 4286
SWIDTH 576 0
DWIDTH 9 0
BBX 9 15 0 -3
BITMAP
0000
0000
4200
4200
4200
4200
4200
7E00
4000
4000
4000
7E00
0200
0000
0000
ENDCHAR
STARTCHAR uni10BF
ENCODING 4287
SWIDTH 576 0
DWIDTH 9 0
BBX 9 15 0 -3
BITMAP
0000
0000
FF00
4100
2200
1400
0800
1400
2200
4000
8000
8000
0000
0000
0000
ENDCHAR
STARTCHAR uni10C0
ENCODING 4288
SWIDTH 576 0
DWIDTH 9 0
BBX 9 15 0 -3
BITMAP
0000
0000
F000
9000
9000
1000
1000
1000
1100
1100
1100
0E00
0000
0000
0000
ENDCHAR
STARTCHAR uni10C1
ENCODING 4289
SWIDTH 576 0
DWIDTH 9 0
BBX 9 15 0 -3
BITMAP
0000
0000
4000
4000
4000
7000
4800
4600
4000
4000
4000
4000
0000
0000
0000
ENDCHAR
STARTCHAR uni10C2
ENCODING 4290
SWIDTH 576 0
DWIDTH 9 0
BBX 9 15 0 -3
BITMAP
0000
0000
5C00
6200
0100
0100
0100
0100
0100
4100
2200
1C00
0000
0000
0000
ENDCHAR
STARTCHAR uni10C3
ENCODING 4291
SWIDTH 576 0
DWIDTH 9 0
BBX 9 15 0 -3
BITMAP
0000
0000
0200
2200
4200
4200
4600
3A00
0200
0200
0200
0200
0000
0000
0000
ENDCHAR
STARTCHAR uni10C4
ENCODING 4292
SWIDTH 576 0
DWIDTH 9 0
BBX 9 15 0 -3
BITMAP
0000
0000
4100
4100
4100
4100
2200
1C00
0800
0800
0800
0800
0000
0000
0000
ENDCHAR
STARTCHAR uni10C5
ENCODING 4293
SWIDTH 576 0
DWIDTH 9 0
BBX 9 15 0 -3
BITMAP
0000
0000
0600
0900
0900
0E00
0800
7E00
8900
8800
8800
7000
0000
0000
0000
ENDCHAR
STARTCHAR uni10D0
ENCODING 4304
SWIDTH 576 0
DWIDTH 9 0
BBX 9 15 0 -3
BITMAP
0000
0000
0000
0000
0000
1000
1000
0C00
0200
4200
4200
3C00
0000
0000
0000
ENDCHAR
STARTCHAR uni10D1
ENCODING 4305
SWIDTH 576 0
DWIDTH 9 0
BBX 9 15 0 -3
BITMAP
0000
0000
2000
3800
0800
0800
3C00
4200
4200
4200
4200
3C00
0000
0000
0000
ENDCHAR
STARTCHAR uni10D2
ENCODING 4306
SWIDTH 576 0
DWIDTH 9 0
BBX 9 15 0 -3
BITMAP
0000
0000
3000
4800
4800
0800
3C00
4200
4200
4200
4200
3C00
0000
0000
0000
ENDCHAR
STARTCHAR uni10D3
ENCODING 4307
SWIDTH 576 0
DWIDTH 9 0
BBX 9 15 0 -3
BITMAP
0000
0000
0000
0000
0000
6E00
9100
9100
9100
9100
4E00
2000
7000
8C00
0200
ENDCHAR
STARTCHAR uni10D4
ENCODING 4308
SWIDTH 576 0
DWIDTH 9 0
BBX 9 15 0 -3
BITMAP
0000
0000
1C00
2200
2200
0200
0200
0200
2200
4200
4200
3C00
0000
0000
0000
ENDCHAR
STARTCHAR uni10D5
ENCODING 4309
SWIDTH 576 0
DWIDTH 9 0
BBX 9 15 0 -3
BITMAP
0000
0000
1C00
2200
2200
0200
0C00
0200
2200
4200
4200
3C00
0000
0000
0000
ENDCHAR
STARTCHAR uni10D6
ENCODING 4310
SWIDTH 576 0
DWIDTH 9 0
BBX 9 15 0 -3
BITMAP
0000
0000
6000
9000
9000
7200
1400
1E00
1100
1100
1100
0E00
0000
0000
0000
ENDCHAR
STARTCHAR uni10D7
ENCODING 4311
SWIDTH 576 0
DWIDTH 9 0
BBX 9 15 0 -3
BITMAP
0000
0000
0000
0000
0000
7600
8900
8900
8900
8900
8900
7200
0000
0000
0000
ENDCHAR
STARTCHAR uni10D8
ENCODING 4312
SWIDTH 576 0
DWIDTH 9 0
BBX 9 15 0 -3
BITMAP
0000
0000
0000
0000
0000
3C00
4200
4200
4200
4200
4200
2400
0000
0000
0000
ENDCHAR
STARTCHAR uni10D9
ENCODING 4313
SWIDTH 576 0
DWIDTH 9 0
BBX 9 15 0 -3
BITMAP
0000
0000
0400
0200
0200
0200
0C00
0200
2200
4200
4200
3C00
0000
0000
0000
ENDCHAR
STARTCHAR uni10DA
ENCODING 4314
SWIDTH 576 0
DWIDTH 9 0
BBX 9 15 0 -3
BITMAP
0000
0000
0000
0000
0000
6A00
9500
9500
8100
8100
4200
2000
7800
8400
0200
ENDCHAR
STARTCHAR uni10DB
ENCODING 4315
SWIDTH 576 0
DWIDTH 9 0
BBX 9 15 0 -3
BITMAP
0000
0000
1C00
2200
2200
0200
1A00
2600
2200
2200
2200
1C00
0000
0000
0000
ENDCHAR
STARTCHAR uni10DC
ENCODING 4316
SWIDTH 576 0
DWIDTH 9 0
BBX 9 15 0 -3
BITMAP
0000
0000
1A00
2400
2000
2000
2C00
3200
2200
2200
2200
1C00
0000
0000
0000
ENDCHAR
STARTCHAR uni10DD
ENCODING 4317
SWIDTH 576 0
DWIDTH 9 0
BBX 9 15 0 -3
BITMAP
0000
0000
0000
0000
0000
3600
4900
4900
4900
4100
4100
2200
0000
0000
0000
ENDCHAR
STARTCHAR uni10DE
ENCODING 4318
SWIDTH 576 0
DWIDTH 9 0
BBX 9 15 0 -3
BITMAP
0000
0000
1000
0C00
0200
0200
0C00
0200
2200
4200
4200
3C00
0000
0000
0000
ENDCHAR
STARTCHAR uni10DF
ENCODING 4319
SWIDTH 576 0
DWIDTH 9 0
BBX 9 15 0 -3
BITMAP
0000
0000
0300
1D00
1100
4900
3100
0100
1100
2100
2100
1E00
0000
0000
0000
ENDCHAR
STARTCHAR uni10E0
ENCODING 4320
SWIDTH 576 0
DWIDTH 9 0
BBX 9 15 0 -3
BITMAP
0000
0000
0200
0400
3800
4000
7600
4900
4900
4900
4100
2200
0000
0000
0000
ENDCHAR
STARTCHAR uni10E1
ENCODING 4321
SWIDTH 576 0
DWIDTH 9 0
BBX 9 15 0 -3
BITMAP
0000
0000
4000
4000
4000
4400
4800
4800
4400
4200
4200
3C00
0000
0000
0000
ENDCHAR
STARTCHAR uni10E2
ENCODING 4322
SWIDTH 576 0
DWIDTH 9 0
BBX 9 15 0 -3
BITMAP
1800
2400
1800
6600
9900
8100
8100
8100
8100
8100
4200
3C00
0000
0000
0000
ENDCHAR
STARTCHAR uni10E3
ENCODING 4323
SWIDTH 576 0
DWIDTH 9 0
BBX 9 15 0 -3
BITMAP
0000
0000
3600
4900
0900
0100
0100
0100
1100
2100
2100
1E00
0000
0000
0000
ENDCHAR
STARTCHAR uni10E4
ENCODING 4324
SWIDTH 576 0
DWIDTH 9 0
BBX 9 15 0 -3
BITMAP
0000
0000
3600
4900
4900
4900
3200
0100
1100
2100
2100
1E00
0000
0000
0000
ENDCHAR
STARTCHAR uni10E5
ENCODING 4325
SWIDTH 576 0
DWIDTH 9 0
BBX 9 15 0 -3
BITMAP
0200
0200
0200
1E00
2200
1200
0200
0200
2200
4200
4200
3C00
0000
0000
0000
ENDCHAR
STARTCHAR uni10E6
ENCODING 4326
SWIDTH 576 0
DWIDTH 9 0
BBX 9 15 0 -3
BITMAP
0000
0000
0000
0000
0000
3600
4900
4900
4100
4100
2200
1000
7800
0600
0100
ENDCHAR
STARTCHAR uni10E7
ENCODING 4327
SWIDTH 576 0
DWIDTH 9 0
BBX 9 15 0 -3
BITMAP
0000
0000
1200
2200
2200
2600
1A00
0200
1200
2200
2200
1C00
0000
0000
0000
ENDCHAR
STARTCHAR uni10E8
ENCODING 4328
SWIDTH 576 0
DWIDTH 9 0
BBX 9 15 0 -3
BITMAP
0000
0000
3600
4900
4900
0100
0D00
1300
1100
1100
1100
0E00
0000
0000
0000
ENDCHAR
STARTCHAR uni10E9
ENCODING 4329
SWIDTH 576 0
DWIDTH 9 0
BBX 9 15 0 -3
BITMAP
0000
0000
1800
2400
3800
2000
2C00
3200
2200
2200
2200
2400
0000
0000
0000
ENDCHAR
STARTCHAR uni10EA
ENCODING 4330
SWIDTH 576 0
DWIDTH 9 0
BBX 9 15 0 -3
BITMAP
0000
0000
4800
4400
4200
4200
4C00
4200
4200
4200
4200
3C00
0000
0000
0000
ENDCHAR
STARTCHAR uni10EB
ENCODING 4331
SWIDTH 576 0
DWIDTH 9 0
BBX 9 15 0 -3
BITMAP
0000
0000
0C00
0200
0200
0200
1A00
2600
2200
2200
2200
1C00
0000
0000
0000
ENDCHAR
STARTCHAR uni10EC
ENCODING 4332
SWIDTH 576 0
DWIDTH 9 0
BBX 9 15 0 -3
BITMAP
0000
0000
3600
4900
4900
4200
4000
7F00
4100
2200
2200
1400
1400
0800
0800
ENDCHAR
STARTCHAR uni10ED
ENCODING 4333
SWIDTH 576 0
DWIDTH 9 0
BBX 9 15 0 -3
BITMAP
0000
0000
2000
3E00
0200
0400
3500
4E00
4E00
3500
0400
2200
4200
4200
3C00
ENDCHAR
STARTCHAR uni10EE
ENCODING 4334
SWIDTH 576 0
DWIDTH 9 0
BBX 9 15 0 -3
BITMAP
0000
0000
2000
2000
2000
2400
2800
3C00
2200
2200
2200
1C00
0000
0000
0000
ENDCHAR
STARTCHAR uni10EF
ENCODING 4335
SWIDTH 576 0
DWIDTH 9 0
BBX 9 15 0 -3
BITMAP
0000
0000
0000
0000
0000
6100
9200
9400
0800
1500
6500
1200
9000
6000
0000
ENDCHAR
STARTCHAR uni10F0
ENCODING 4336
SWIDTH 576 0
DWIDTH 9 0
BBX 9 15 0 -3
BITMAP
0000
0000
1000
0C00
0200
0C00
0200
0C00
2200
4200
4200
3C00
0000
0000
0000
ENDCHAR
STARTCHAR uni10F1
ENCODING 4337
SWIDTH 576 0
DWIDTH 9 0
BBX 9 15 0 -3
BITMAP
0000
0000
5000
4C00
4200
4C00
4200
4C00
4200
4200
4200
3C00
0000
0000
0000
ENDCHAR
STARTCHAR uni10F2
ENCODING 4338
SWIDTH 576 0
DWIDTH 9 0
BBX 9 15 0 -3
BITMAP
0000
0000
0000
0000
0000
1C00
2200
2200
2200
1400
1C00
6300
0000
0000
0000
ENDCHAR
STARTCHAR uni10F3
ENCODING 4339
SWIDTH 576 0
DWIDTH 9 0
BBX 9 15 0 -3
BITMAP
0000
0000
3E00
0200
0400
0800
0C00
0200
0200
0200
0400
3800
0000
0000
0000
ENDCHAR
STARTCHAR uni10F4
ENCODING 4340
SWIDTH 576 0
DWIDTH 9 0
BBX 9 15 0 -3
BITMAP
2000
2000
1C00
0200
0200
0C00
0200
0200
2200
4200
4200
3C00
0000
0000
0000
ENDCHAR
STARTCHAR uni10F5
ENCODING 4341
SWIDTH 576 0
DWIDTH 9 0
BBX 9 15 0 -3
BITMAP
0000
0000
3800
4400
4400
3E00
0400
3E00
4400
4400
4400
3800
0000
0000
0000
ENDCHAR
STARTCHAR uni10F6
ENCODING 4342
SWIDTH 576 0
DWIDTH 9 0
BBX 9 15 0 -3
BITMAP
0000
0000
1000
0800
0800
3E00
4900
4900
4900
4900
4900
3E00
0800
0800
0400
ENDCHAR
STARTCHAR uni10F7
ENCODING 4343
SWIDTH 576 0
DWIDTH 9 0
BBX 9 15 0 -3
BITMAP
0000
0000
3800
4400
0400
0800
1000
2000
4400
4200
4200
3C00
0000
0000
0000
ENDCHAR
STARTCHAR uni10F8
ENCODING 4344
SWIDTH 576 0
DWIDTH 9 0
BBX 9 15 0 -3
BITMAP
0000
0000
2400
2200
2200
3200
2C00
2000
2400
2200
2200
1C00
0000
0000
0000
ENDCHAR
STARTCHAR uni10FB
ENCODING 4347
SWIDTH 576 0
DWIDTH 9 0
BBX 9 15 0 -3
BITMAP
0000
0000
0000
0000
0000
2000
7000
2200
0700
2200
7000
2000
0000
0000
0000
ENDCHAR
ENDFONT
